<svg xmlns="http://www.w3.org/2000/svg" width="256" height="256" viewBox="0 0 100 100"><rect width="100" height="100" rx="20" fill="#36315c"></rect><path fill="#fff" d="M24.75 72.41L24.75 72.41Q30.79 72.41 33.89 69.67Q36.99 66.92 36.99 62.60L36.99 62.60Q36.99 58.82 34.61 56.48Q32.22 54.14 27.09 52.61L27.09 52.61L19.27 50.27Q13.50 48.56 10.22 45.23Q6.93 41.90 6.93 36.23L6.93 36.23Q6.93 32.81 8.24 30.06Q9.54 27.32 11.97 25.43Q14.40 23.54 17.78 22.51Q21.15 21.47 25.38 21.47L25.38 21.47Q28.98 21.47 32.09 22.05Q35.20 22.64 37.49 23.68Q39.78 24.71 41.05 25.97Q42.30 27.23 42.30 28.58L42.30 28.58Q42.30 29.84 41.67 30.74Q41.05 31.64 40.05 32.18L40.05 32.18Q37.71 30.38 33.98 29.03Q30.24 27.68 25.65 27.68L25.65 27.68Q20.34 27.68 17.33 29.93Q14.31 32.18 14.31 36.23L14.31 36.23Q14.31 39.38 16.48 41.36Q18.63 43.34 23.68 44.78L23.68 44.78L29.16 46.40Q36.27 48.47 40.37 52.20Q44.46 55.94 44.46 62.60L44.46 62.60Q44.46 69.71 39.34 74.12Q34.20 78.53 24.75 78.53L24.75 78.53Q20.61 78.53 17.24 77.81Q13.87 77.09 11.48 75.92Q9.09 74.75 7.79 73.36Q6.48 71.96 6.48 70.61L6.48 70.61Q6.48 69.08 7.43 68.05Q8.38 67.01 9.63 66.56L9.63 66.56Q10.63 67.55 12.06 68.58Q13.50 69.62 15.39 70.47Q17.29 71.33 19.63 71.87Q21.96 72.41 24.75 72.41ZM90.72 28.85L75.88 28.85L75.88 77.18Q75.42 77.36 74.48 77.58Q73.53 77.81 72.55 77.81L72.55 77.81Q68.59 77.81 68.59 74.48L68.59 74.48L68.59 28.85L51.76 28.85Q51.48 28.40 51.22 27.63Q50.95 26.87 50.95 25.88L50.95 25.88Q50.95 24.35 51.66 23.50Q52.38 22.64 53.73 22.64L53.73 22.64L92.70 22.64Q92.97 23.09 93.25 23.86Q93.52 24.62 93.52 25.52L93.52 25.52Q93.52 27.05 92.80 27.95Q92.07 28.85 90.72 28.85L90.72 28.85Z"></path></svg>